<svg xmlns="http://www.w3.org/2000/svg" xmlns:xlink="http://www.w3.org/1999/xlink" width="32" height="32" viewBox="0 0 32 32"><defs><style>.a,.c{fill:#fff;}.a{stroke:#fff;}.b{clip-path:url(#a);}.d{fill:#00adef;}</style><clipPath id="a"><rect class="a" width="32" height="32" transform="translate(1794 25)"/></clipPath></defs><g class="b" transform="translate(-1794 -25)"><g transform="translate(1784 29)"><g transform="translate(15)"><g transform="translate(0)"><path class="c" d="M31.271,18.622a.941.941,0,0,0-.941.941V22.2H16.881V1.881h13.45V4.515a.941.941,0,1,0,1.881,0V.941A.941.941,0,0,0,31.271,0H15.941A.941.941,0,0,0,15,.941v22.2a.941.941,0,0,0,.941.941H31.271a.941.941,0,0,0,.941-.941V19.563A.941.941,0,0,0,31.271,18.622Z" transform="translate(-15)"/><path class="d" d="M254.7,185.063l-2.527-2.527a.941.941,0,1,0-1.33,1.33l.922.922h-7.791a.941.941,0,0,0,0,1.881h7.791l-.922.922a.941.941,0,1,0,1.33,1.33l2.527-2.527h0a.925.925,0,0,0,.275-.665A.954.954,0,0,0,254.7,185.063Z" transform="translate(-232.313 -173.689)"/></g></g></g></g></svg>